<?xml version="1.0" encoding="UTF-8"?>
<svg width="241px" height="160px" viewBox="0 0 241 160" version="1.1" xmlns="http://www.w3.org/2000/svg" xmlns:xlink="http://www.w3.org/1999/xlink">
    <!-- Generator: Sketch 55.2 (78181) - https://sketchapp.com -->
    <title>cat tile</title>
    <desc>Created with Sketch.</desc>
    <g id="Page-1" stroke="none" stroke-width="1" fill="none" fill-rule="evenodd">
        <g id="cat-tile">
            <g id="Group">
                <polygon id="Path" fill="#3E3E49" points="121 120 241 60 241 100 121 160 1 100 1 60"></polygon>
                <path d="M192.106924,95.3686391 C186.00006,115.458989 136.674537,133.7783 122.917847,119.184335 C122.678946,118.930894 122.039664,119.202782 121,120 C96.4666336,127.04704 77.5817994,123.713707 64.3454974,110 C41.4418197,86.270236 34.4913136,100.672207 19.6712202,86.270236 C5.19312696,72.2006163 -1.03061309,63.443871 1,60 L121,0 L241,60 C233.919502,83.5790927 217.62181,95.3686391 192.106924,95.3686391 Z" id="Path" fill="#C1D84C"></path>
            </g>
            <path d="M98.7812526,68.2491083 C98.9849328,68.2491083 99.998584,67.6470704 101.822206,66.4429947 L104.484928,71.4092005 L105.606313,71.4092005 C103.937749,63.0686508 103.148273,58.6676477 103.237885,58.2061913 C103.501146,56.8505202 103.020956,53.6777649 103.237885,53.5868588 C105.615772,52.5903799 108,52.5763221 108,49.9712098 C108,47.9608026 107.846166,41.2915264 106.302611,40.1193756 C105.134865,39.2326087 102.815357,43.5771532 101.197197,43.5771532 C99.5907542,43.5771532 97.702856,39.2441537 96.5389976,40.1193756 C94.9808696,41.2910882 94.3943933,47.9497892 94.3943933,49.9712098 C94.3943933,52.5571619 96.4314224,52.5795808 98.7812526,53.5868588 C98.9882741,53.6756006 90.7895576,58.6483381 89.5785892,61.5540636 C88.2104007,64.8370395 87.2641673,67.6108112 87.4835191,69.5043385 C87.5037267,69.6787777 81.6777183,68.4549701 79.654986,66.8647273 C78.3211505,65.8160851 81.040065,64.3193741 79.654986,63.9851954 C78.2255615,63.6403173 76.5272234,66.2763998 77.0369882,66.8647273 C77.5467531,67.4530548 79.4409619,69.3229282 84.113189,70.7091994 C87.6255344,71.7513283 92.273875,71.6830058 92.5716934,71.7163492 C94.2548825,71.9047968 99.7241043,72.2472731 101.197197,71.7163492 C102.988566,71.0707137 98.5820538,68.2491083 98.7812526,68.2491083 Z" id="Oval" fill="#3E3E49"></path>
            <path d="M131.403263,40.4994711 C128.564491,38.735161 126.674537,35.5882917 126.674537,32 C126.674537,26.4771525 131.15169,22 136.674537,22 C142.197385,22 146.674537,26.4771525 146.674537,32 C146.674537,33.2843353 146.432416,34.5121203 145.991328,35.6402004 C146.315689,36.0290238 146.646846,36.4332176 146.984945,36.8527895 C150.211215,40.8565115 151.672843,34.1690104 161.58569,58.5216861 C163.757919,63.8581517 160.50581,66.3042146 155.268954,69.4947455 C154.70527,69.8381671 150.938981,70.4750058 150.639288,76.1917267 C150.431648,80.1525193 150.892817,86.4725184 152.022796,95.151724 L146.984945,95.151724 C144.792972,85.1922744 143.933964,78.8722753 144.40792,76.1917267 C144.881877,73.5111782 145.402431,71.9115837 145.969585,71.3929435 L141.207113,76.1917267 L142.875107,95.151724 L137.833728,95.151724 L133.447765,76.1917267 L141.207113,66.0375208 L141.560459,65.2360883 C140.138085,57.2622382 138.895842,52.5984867 137.833728,51.2448337 C135.209023,47.8996758 133.533402,52.3356273 133.447765,51.2448337 C133.30945,49.4830425 132.362314,57.6557232 131.312203,61.474807 C130.363842,64.9238405 123.989753,64.5872701 112.189935,60.465096 C111.707835,58.3832718 111.450298,57.1323542 111.417323,56.7123431 C111.383929,56.2869824 116.16128,57.5379001 125.749377,60.465096 L131.312203,41.4392992 C131.341582,41.120252 131.371924,40.8069753 131.403263,40.4994711 Z" id="Path-15" fill="#FFFFFF"></path>
        </g>
    </g>
</svg>