<?xml version="1.0" encoding="UTF-8"?>
<svg width="303px" height="93px" viewBox="0 0 303 93" version="1.1" xmlns="http://www.w3.org/2000/svg" xmlns:xlink="http://www.w3.org/1999/xlink">
    <!-- Generator: Sketch 58 (84663) - https://sketch.com -->
    <title>Group 5</title>
    <desc>Created with Sketch.</desc>
    <g id="Page-1" stroke="none" stroke-width="1" fill="none" fill-rule="evenodd">
        <g id="Artboard" transform="translate(-77.000000, -443.000000)" fill="#FFFFFF">
            <g id="Group-5" transform="translate(77.000000, 443.000000)">
                <path d="M153.5,0 C173.884652,0 191.138369,9.133165 196.926706,21.721083 C203.103439,19.341235 210.095148,18 217.5,18 C239.230206,18 257.4025,29.5504732 261.920676,44.9960545 C276.249919,49.2899044 286,57.7568208 286,67.5 C286,81.5832611 265.628956,93 240.5,93 C228.906853,93 218.326381,90.5700582 210.291685,86.5693849 C203.236567,85.7179906 196.721943,83.636877 191.141941,80.6248778 C183.480754,84.6237783 173.897673,87 163.5,87 C150.877059,87 139.454691,83.4978414 131.211907,77.8418618 C126.039126,79.2347077 120.400738,80 114.5,80 C113.035565,80 111.587289,79.9528638 110.158261,79.8606966 C103.108818,87.5983896 87.1090324,93 68.5,93 C43.3710439,93 23,83.1502645 23,71 C23,58.8497355 43.3710439,49 68.5,49 C68.6670808,49 68.8339513,49.0004354 69.0006069,49.0013041 L69,49 C69,32.4153796 88.1150249,18.8725427 112.153441,18.0405146 C119.356156,7.3920289 135.161049,0 153.5,0 Z" id="Combined-Shape"></path>
                <rect id="Rectangle" x="0" y="72" width="303" height="21" rx="10.5"></rect>
            </g>
        </g>
    </g>
</svg>