<?xml version="1.0" encoding="UTF-8" standalone="no"?>
<svg
   width="551"
   height="722"
   viewBox="0 0 551 722"
   version="1.1"
   id="svg13"
   xmlns="http://www.w3.org/2000/svg"
   xmlns:svg="http://www.w3.org/2000/svg">
  <defs
     id="defs13" />
  <!-- Generator: Sketch 58 (84663) - https://sketch.com -->
  <title
     id="title1">Group 6</title>
  <desc
     id="desc1">Created with Sketch.</desc>
  <g
     id="Page-1"
     stroke="none"
     stroke-width="1"
     fill="none"
     fill-rule="evenodd">
    <g
       id="full-image">
      <g
         id="tree-tile"
         transform="translate(84)">
        <polygon
           id="Path"
           fill="#3e3e49"
           points="276,386 156,446 36,386 36,346 156,406 276,346 " />
        <path
           d="m 245.70334,376.86523 c -11.91316,3.02136 -26.44754,9.04619 -41.91153,23.86532 -4.6284,4.43539 -20.559,6.19188 -47.79181,5.26945 -19.95354,5.57834 -38.83837,2.24501 -56.654503,-10 C 82.361711,384.32706 67.545539,384.88406 54.67122,372.27024 40.280762,358.17095 34.057022,349.41421 36,346 l 120,-60 120,60 c -0.78677,15.6539 -10.88566,25.94231 -30.29666,30.86523 z"
           id="path1"
           fill="#c1d84c" />
        <ellipse
           id="Oval"
           fill="#c1d84c"
           cx="158"
           cy="120"
           rx="158"
           ry="120" />
        <ellipse
           id="ellipse1"
           fill="#9db137"
           cx="157.5"
           cy="329.5"
           rx="68.5"
           ry="26.5" />
        <path
           d="M 115.35359,331.96716 C 138.99462,336.65572 153.12532,339 157.74568,339 c 4.62037,0 18.77187,-2.34428 42.4545,-7.03284 -14.56757,-14.29114 -22.4907,-33.71693 -23.76939,-58.27737 -1.2787,-24.56045 -1.2787,-47.48223 0,-68.76534 L 233.39712,166.82298 241,158.06317 176.43079,187.0602 231.34644,76.620534 213.36717,80.293029 167.64294,158.06317 169.49392,45 h -20.4515 L 149.182,158.06317 107.78234,76.620534 90.06518,72.948038 137.96169,187.0602 74,158.06317 l 4.89326,8.75981 59.06843,38.10147 c 1.36011,20.09617 1.36011,43.01795 0,68.76534 -1.36011,25.74738 -8.89614,45.17317 -22.6081,58.27737 z"
           id="Path-6"
           fill="#3e3e49" />
        <g
           id="Group-4"
           transform="rotate(180,117,84.5)">
          <path
             d="m 5.403867,12.135313 c 1.5185217,0.0078 4.80391,0.0247 9.856165,0.05068 C 11.561788,8.6421092 9.2125036,6.4681446 8.21218,5.664094 7.6680975,5.2267656 7.2356167,4.9166971 6.9147376,4.7338884 6.2772332,4.3706946 5.7606113,4.1880804 5.364872,4.1859879 3.0870894,4.1743347 1.2493111,5.9443451 1.2600322,8.1394748 1.2708474,10.334604 3.1260844,12.123602 5.403867,12.135313 Z"
             id="path2"
             fill="#3e3e49"
             transform="rotate(-46,8.260032,8.185988)" />
          <circle
             id="circle2"
             fill="#ffffff"
             transform="rotate(-46,6.760032,11.685988)"
             cx="6.7600322"
             cy="11.685987"
             r="1" />
        </g>
      </g>
      <g
         id="flag-tile"
         transform="translate(224,223)">
        <polygon
           id="polygon2"
           fill="#3e3e49"
           points="242,211 122,271 2,211 2,171 122,231 242,171 " />
        <path
           d="m 211.70334,201.86523 c -11.91316,3.02136 -26.44754,9.04619 -41.91153,23.86532 C 165.16341,230.16594 149.23281,231.92243 122,231 102.04646,236.57834 83.161631,233.24501 65.345497,221 48.361711,209.32706 33.545538,209.88406 20.67122,197.27024 6.2807616,183.17095 0.05702156,174.41421 2,171 l 120,-60 8.40574,1.30943 2.672,-4.33837 L 153.05866,111 136.79734,101.46245 153.05866,56 l 31.34576,64.5 3.73352,-26.213059 16.04722,41.476509 7.51818,16.02374 L 242,171 c -0.78677,15.6539 -10.88566,25.94231 -30.29666,30.86523 z"
           id="path3"
           fill="#c1d84c" />
        <polygon
           id="Path-11"
           fill="#3e3e49"
           points="185.55817,171 176,171 199.44183,0 209,0 "
           transform="translate(-24.549259,-2.5178727)" />
        <g
           id="Group-2"
           transform="translate(0,86)"
           fill="#65c9d1">
          <polygon
             id="Path-8"
             points="57.93983,62.929487 60.962786,71.26778 52.973994,67.860638 52.973994,48.782842 39.720974,53.728099 39.720974,40.538031 55.345627,25.213567 " />
          <path
             d="m 33,17 7.92758,2.631116 c 2.445578,4.706309 4.057203,7.528029 4.834877,8.465158 1.179037,1.420789 1.767065,-0.970053 2.177396,0 0.816301,1.929801 0.0905,2.918092 -2.177396,2.964873 l -7.528203,-3.913592 z"
             id="Path-9" />
          <path
             d="M 17.822795,20.286926 10.795352,39.396571 C 7.8654231,44.387087 5.9336391,47.335121 5,48.240674 2.6328401,50.536622 1.8156255,48.085533 1.2082299,49.498959 0.24148725,51.748598 1.5054106,52.876451 5,52.882521 l 12.822795,-13.48595 7.580923,-9.290347 v 26.175213 c -0.311992,1.932739 1.053435,5.405125 4.096282,10.417157 3.042847,5.012032 8.959239,13.533944 17.749177,25.565734 L 51.546296,82.021942 C 48.981192,84.101911 47.053245,83.4963 45.762457,80.205108 44.471669,76.913916 43.636575,70.474456 43.257175,60.886727 V 48.069809 L 39.720974,27.385285 34.48672,13.01561 Z"
             id="Path-7" />
          <path
             d="m 29.5,20.286941 c 5.79899,0 10.5,-4.701025 10.5,-10.5000149 C 40,3.9879362 35.29899,0 29.5,0 23.70101,0 19,4.7010101 19,10.5 c 0,5.79899 4.70101,9.786941 10.5,9.786941 z"
             id="path4" />
        </g>
        <polygon
           id="Path-12"
           fill="#FFFFFF"
           points="261,8.1957546 208.37218,0 203,44 248.23149,39.893113 "
           style="fill:#65c9d1;fill-opacity:1"
           transform="translate(-24.549259,-2.5178727)" />
        <path
           id="Path-13"
           style="fill:#65c9d1"
           d="m 243.34491,-0.92998503 59.22625,23.53928203 -69.15381,1.24162 z" />
      </g>
      <g
         id="water-tile"
         transform="matrix(-1,0,0,1,240,346)">
        <polyline
           id="polyline4"
           fill="#5ca8b0"
           points="0 60 120 120 240 60 240 100 120 160 0 100 0 60" />
        <polyline
           id="polyline5"
           fill="#65c9d1"
           points="240 60 120 120 0 60 120 0 240 60" />
        <path
           d="m 130.10714,42.99189 c 8.27455,0 28.89286,-7.90265 28.89286,-10.15155 0,-2.2489 -5.08723,-1.804726 -13.36178,-1.804726 -8.27455,0 -27.63822,7.706615 -27.63822,9.955515 0,2.2489 3.83259,2.000761 12.10714,2.000761 z"
           id="path5"
           fill="#8dd7dd" />
        <path
           d="M 82.107141,88.99189 C 90.381689,88.99189 111,81.08924 111,78.84034 111,76.59144 105.91277,77.035614 97.638218,77.035614 89.363669,77.035614 70,84.742228 70,86.991129 c 0,2.2489 3.832592,2.000761 12.107141,2.000761 z"
           id="path6"
           fill="#8dd7dd" />
        <path
           d="M 64.107141,54.99189 C 72.381689,54.99189 93,47.08924 93,44.84034 93,42.59144 87.912767,43.035614 79.638218,43.035614 71.363669,43.035614 52,50.742229 52,52.991129 c 0,2.2489 3.832592,2.000761 12.107141,2.000761 z"
           id="path7"
           fill="#8dd7dd" />
        <path
           d="m 160.10714,78.99189 c 8.27455,0 28.89286,-7.90265 28.89286,-10.15155 0,-2.2489 -5.08723,-1.804726 -13.36178,-1.804726 -8.27455,0 -27.63822,7.706614 -27.63822,9.955515 0,2.2489 3.83259,2.000761 12.10714,2.000761 z"
           id="path8"
           fill="#8dd7dd" />
      </g>
      <g
         id="waterfall-tile"
         transform="matrix(-1,0,0,1,363,406)">
        <polygon
           id="polygon8"
           fill="#5ca8b0"
           points="244,100 124,160 4,100 4,60 124,120 244,60 " />
        <path
           id="path14"
           d="M 124,0 244,60 124,120 3,60 Z"
           style="fill:#65c9d1;fill-opacity:1" />
        <path
           d="m 127.10714,42.99189 c 8.27455,0 28.89286,-7.90265 28.89286,-10.15155 0,-2.2489 -5.08723,-1.804726 -13.36178,-1.804726 -8.27455,0 -27.63822,7.706615 -27.63822,9.955515 0,2.2489 3.83259,2.000761 12.10714,2.000761 z"
           id="path10"
           fill="#8dd7dd" />
        <path
           d="M 79.107141,88.99189 C 87.381689,88.99189 108,81.08924 108,78.84034 108,76.59144 102.91277,77.035614 94.638218,77.035614 86.363669,77.035614 67,84.742228 67,86.991129 c 0,2.2489 3.832592,2.000761 12.107141,2.000761 z"
           id="path11"
           fill="#8dd7dd" />
        <path
           d="M 61.107141,54.99189 C 69.381689,54.99189 90,47.08924 90,44.84034 90,42.59144 84.912767,43.035614 76.638218,43.035614 68.363669,43.035614 49,50.742229 49,52.991129 c 0,2.2489 3.832592,2.000761 12.107141,2.000761 z"
           id="path12"
           fill="#8dd7dd" />
        <path
           d="m 157.10714,78.99189 c 8.27455,0 28.89286,-7.90265 28.89286,-10.15155 0,-2.2489 -5.08723,-1.804726 -13.36178,-1.804726 -8.27455,0 -27.63822,7.706614 -27.63822,9.955515 0,2.2489 3.83259,2.000761 12.10714,2.000761 z"
           id="path13"
           fill="#8dd7dd" />
      </g>
      <g
         id="cascade">
        <path
           id="path9"
           d="m 3,60 121,60 c 0.33333,109.94454 0.33333,170.61133 0,182 -0.5,17.083 -21.74285,15.27506 -29.660156,9 C 79.6493,299.35663 84.428825,285.80288 77.055798,283.34235 69.682771,280.88182 71.488792,296.46931 51.362957,296.87248 38.350433,297.13316 34.033151,281.61993 31.974609,275.00391 27.324105,260.05747 6.2864239,298.7668 3,270.39258 1.7769296,259.83288 3.154912,139.06901 3,60 Z"
           style="fill:#65c9d1;fill-opacity:1"
           transform="matrix(-1,0,0,1,363,406)" />
      </g>
    </g>
  </g>
</svg>
