<?xml version="1.0" encoding="UTF-8"?>
<svg width="316px" height="446px" viewBox="0 0 316 446" version="1.1" xmlns="http://www.w3.org/2000/svg" xmlns:xlink="http://www.w3.org/1999/xlink">
    <!-- Generator: Sketch 55.2 (78181) - https://sketchapp.com -->
    <title>tree tile</title>
    <desc>Created with Sketch.</desc>
    <g id="Page-1" stroke="none" stroke-width="1" fill="none" fill-rule="evenodd">
        <g id="tree-tile">
            <polygon id="Path" fill="#3E3E49" points="156 406 276 346 276 386 156 446 36 386 36 346"></polygon>
            <path d="M245.703342,376.865231 C233.790176,379.886591 219.255799,385.911418 203.791813,400.730547 C199.16341,405.165943 183.232806,406.922427 156,406 C136.046465,411.578343 117.161631,408.245009 99.3454974,396 C82.3617115,384.327062 67.5455385,384.884058 54.6712202,372.270236 C40.2807616,358.170951 34.0570216,349.414206 36,346 L156,286 L276,346 C275.213226,361.653897 265.11434,371.942308 245.703342,376.865231 Z" id="Path" fill="#C1D84C"></path>
            <ellipse id="Oval" fill="#C1D84C" cx="158" cy="120" rx="158" ry="120"></ellipse>
            <ellipse id="Oval" fill="#9DB137" cx="157.5" cy="329.5" rx="68.5" ry="26.5"></ellipse>
            <path d="M115.353594,331.967161 C138.994623,336.65572 153.12532,339 157.745684,339 C162.366047,339 176.517548,336.65572 200.200184,331.967161 C185.632615,317.67602 177.709482,298.250228 176.430787,273.689786 C175.152093,249.129344 175.152093,226.207564 176.430787,204.924446 L233.397115,166.822983 L241,158.063166 L176.430787,187.060197 L231.346445,76.6205337 L213.367173,80.2930293 L167.642936,158.063166 L169.493919,45 L149.04242,45 L149.182003,158.063166 L107.782344,76.6205337 L90.06518,72.9480381 L137.961692,187.060197 L74,158.063166 L78.8932605,166.822983 L137.961692,204.924446 C139.321805,225.020625 139.321805,247.942405 137.961692,273.689786 C136.601579,299.437167 129.065547,318.862958 115.353594,331.967161 Z" id="Path-6" fill="#3E3E49"></path>
            <g id="Group-2" transform="translate(140.000000, 309.000000)" fill="#65C9D1">
                <polygon id="Path-8" points="39.720974 40.5380311 55.3456272 25.2135669 57.9398305 62.9294869 60.9627863 71.2677804 52.9739941 67.8606381 52.9739941 48.7828424 39.720974 53.7280995"></polygon>
                <path d="M33,17 L40.9275802,19.6311158 C43.3731576,24.3374254 44.9847832,27.1591449 45.762457,28.0962743 C46.9414939,29.517063 47.5295222,27.1262208 47.9398526,28.0962743 C48.756154,30.0260753 48.0303554,31.0143663 45.762457,31.0611473 L38.2342543,27.1475555 L33,17 Z" id="Path-9"></path>
                <path d="M17.8227951,20.286926 L10.7953521,39.3965707 C7.86542311,44.3870872 5.93363909,47.3351215 5,48.2406737 C2.63284014,50.5366216 1.81562546,48.0855328 1.20822995,49.4989595 C0.241487251,51.7485975 1.5054106,52.8764513 5,52.8825211 L17.8227951,39.3965707 L25.4037184,30.1062236 L25.4037184,56.2814368 C25.0917259,58.2141763 26.4571531,61.686562 29.5,66.6985941 C32.5428469,71.7106262 38.4592391,80.2325376 47.2491767,92.2643281 L51.5462961,82.0219418 C48.9811916,84.1019114 47.0532453,83.4963002 45.762457,80.2051084 C44.4716687,76.9139165 43.6365747,70.4744561 43.257175,60.886727 L43.257175,48.0698092 L39.720974,27.3852848 L34.4867197,13.0156103 L17.8227951,20.286926 Z" id="Path-7"></path>
                <path d="M29.5,20.2869407 C35.2989899,20.2869407 40,15.5859159 40,9.78692605 C40,3.98793617 35.2989899,0 29.5,0 C23.7010101,0 19,4.70101013 19,10.5 C19,16.2989899 23.7010101,20.2869407 29.5,20.2869407 Z" id="Oval"></path>
            </g>
            <g id="Group-4" transform="translate(226.000000, 161.000000) scale(-1, -1) translate(-226.000000, -161.000000) translate(218.000000, 153.000000)">
                <path d="M5.40386698,12.1353132 C6.92238871,12.1431206 10.2077771,12.1600122 15.2600322,12.1859879 C11.5617876,8.64210924 9.21250358,6.46814459 8.21218002,5.66409396 C7.66809755,5.22676561 7.23561674,4.9166971 6.91473759,4.73388844 C6.27723321,4.3706946 5.76061134,4.18808036 5.364872,4.18598792 C3.08708942,4.17433466 1.24931112,5.94434515 1.26003221,8.13947477 C1.27084745,10.3346044 3.1260844,12.1236022 5.40386698,12.1353132 Z" id="Oval" fill="#3E3E49" transform="translate(8.260032, 8.185988) rotate(-46.000000) translate(-8.260032, -8.185988) "></path>
                <circle id="Oval" fill="#FFFFFF" transform="translate(6.760032, 11.685988) rotate(-46.000000) translate(-6.760032, -11.685988) " cx="6.76003221" cy="11.6859879" r="1"></circle>
            </g>
        </g>
    </g>
</svg>