<?xml version="1.0" encoding="UTF-8"?>
<svg width="244px" height="316px" viewBox="0 0 244 316" version="1.1" xmlns="http://www.w3.org/2000/svg" xmlns:xlink="http://www.w3.org/1999/xlink">
    <!-- Generator: Sketch 55.2 (78181) - https://sketchapp.com -->
    <title>waterfall tile</title>
    <desc>Created with Sketch.</desc>
    <g id="Page-1" stroke="none" stroke-width="1" fill="none" fill-rule="evenodd">
        <g id="waterfall-tile" transform="translate(122.000000, 158.000000) scale(-1, 1) translate(-122.000000, -158.000000) ">
            <polygon id="Path" fill="#5CA8B0" points="124 120 244 60 244 100 124 160 4 100 4 60"></polygon>
            <path d="M124,120 C124.333333,229.944651 124.333333,290.611318 124,302 C123.5,319.083023 102.256236,317.275071 94.3389211,311 C79.6483634,299.356621 90.2281934,291.41171 78,284.916977 C78,284.916977 73.775517,296.950634 58.837092,296.950634 C43.8986669,296.950634 34.0332179,281.620421 31.9746743,275.004389 C27.3241651,260.05794 14.7679531,289.95445 4.5,270.393137 C0.925504375,263.583422 1.25822712,257.733404 1,243 C0.333333333,204.962672 1,143.962672 3,60 L124,0 L244,60 L124,120 Z" id="Path" fill="#65C9D1"></path>
            <path d="M127.107141,42.9918904 C135.381689,42.9918904 156,35.0892399 156,32.8403398 C156,30.5914397 150.912767,31.0356142 142.638218,31.0356142 C134.363669,31.0356142 115,38.7422285 115,40.9911286 C115,43.2400287 118.832592,42.9918904 127.107141,42.9918904 Z" id="Oval" fill="#8DD7DD"></path>
            <path d="M79.1071407,88.9918904 C87.3816894,88.9918904 108,81.0892399 108,78.8403398 C108,76.5914397 102.912767,77.0356142 94.6382179,77.0356142 C86.3636692,77.0356142 67,84.7422285 67,86.9911286 C67,89.2400287 70.8325919,88.9918904 79.1071407,88.9918904 Z" id="Oval" fill="#8DD7DD"></path>
            <path d="M61.1071407,54.9918904 C69.3816894,54.9918904 90,47.0892399 90,44.8403398 C90,42.5914397 84.9127666,43.0356142 76.6382179,43.0356142 C68.3636692,43.0356142 49,50.7422285 49,52.9911286 C49,55.2400287 52.8325919,54.9918904 61.1071407,54.9918904 Z" id="Oval" fill="#8DD7DD"></path>
            <path d="M157.107141,78.9918904 C165.381689,78.9918904 186,71.0892399 186,68.8403398 C186,66.5914397 180.912767,67.0356142 172.638218,67.0356142 C164.363669,67.0356142 145,74.7422285 145,76.9911286 C145,79.2400287 148.832592,78.9918904 157.107141,78.9918904 Z" id="Oval" fill="#8DD7DD"></path>
        </g>
    </g>
</svg>