<?xml version="1.0" encoding="UTF-8"?>
<svg width="240px" height="160px" viewBox="0 0 240 160" version="1.1" xmlns="http://www.w3.org/2000/svg" xmlns:xlink="http://www.w3.org/1999/xlink">
    <!-- Generator: Sketch 55.2 (78181) - https://sketchapp.com -->
    <title>water tile</title>
    <desc>Created with Sketch.</desc>
    <g id="Page-1" stroke="none" stroke-width="1" fill="none" fill-rule="evenodd">
        <g id="water-tile" transform="translate(120.000000, 80.000000) scale(-1, 1) translate(-120.000000, -80.000000) ">
            <polyline id="Path" fill="#5CA8B0" points="0 60 120 120 240 60 240 100 120 160 0 100 0 60"></polyline>
            <polyline id="Path" fill="#65C9D1" points="240 60 120 120 0 60 120 0 240 60"></polyline>
            <path d="M130.107141,42.9918904 C138.381689,42.9918904 159,35.0892399 159,32.8403398 C159,30.5914397 153.912767,31.0356142 145.638218,31.0356142 C137.363669,31.0356142 118,38.7422285 118,40.9911286 C118,43.2400287 121.832592,42.9918904 130.107141,42.9918904 Z" id="Oval" fill="#8DD7DD"></path>
            <path d="M82.1071407,88.9918904 C90.3816894,88.9918904 111,81.0892399 111,78.8403398 C111,76.5914397 105.912767,77.0356142 97.6382179,77.0356142 C89.3636692,77.0356142 70,84.7422285 70,86.9911286 C70,89.2400287 73.8325919,88.9918904 82.1071407,88.9918904 Z" id="Oval" fill="#8DD7DD"></path>
            <path d="M64.1071407,54.9918904 C72.3816894,54.9918904 93,47.0892399 93,44.8403398 C93,42.5914397 87.9127666,43.0356142 79.6382179,43.0356142 C71.3636692,43.0356142 52,50.7422285 52,52.9911286 C52,55.2400287 55.8325919,54.9918904 64.1071407,54.9918904 Z" id="Oval" fill="#8DD7DD"></path>
            <path d="M160.107141,78.9918904 C168.381689,78.9918904 189,71.0892399 189,68.8403398 C189,66.5914397 183.912767,67.0356142 175.638218,67.0356142 C167.363669,67.0356142 148,74.7422285 148,76.9911286 C148,79.2400287 151.832592,78.9918904 160.107141,78.9918904 Z" id="Oval" fill="#8DD7DD"></path>
        </g>
    </g>
</svg>