<?xml version="1.0" encoding="UTF-8"?>
<svg width="570px" height="122px" viewBox="0 0 570 122" version="1.1" xmlns="http://www.w3.org/2000/svg" xmlns:xlink="http://www.w3.org/1999/xlink">
    <!-- Generator: Sketch 55.2 (78181) - https://sketchapp.com -->
    <title>Group</title>
    <desc>Created with Sketch.</desc>
    <g id="Page-1" stroke="none" stroke-width="1" fill="none" fill-rule="evenodd">
        <g id="Group" transform="translate(3.000000, -79.000000)">
            <path d="M13.04,114 L10.905,114 L10.905,89.01 L13.04,89.01 L13.04,114 Z M19.4741669,88.24 L21.3291669,88.24 L21.3291669,92.335 C21.3291669,93.07 21.0491669,93.56 20.6991669,93.98 L19.9991669,93.98 C20.3491669,93.56 20.6291669,93.07 20.6291669,92.335 L20.6291669,90.76 L19.4741669,90.76 L19.4741669,88.24 Z M26.6083338,114 L26.6083338,99.545 L28.6033338,99.545 L28.6033338,101.26 C28.9533338,100.315 29.9683338,99.265 32.0333338,99.265 C34.5183338,99.265 35.5683338,100.315 36.1283338,101.715 C36.7583338,100.385 37.9133338,99.23 40.3633338,99.23 C43.6533338,99.23 45.5083338,101.33 45.5083338,103.955 L45.5083338,114 L43.5483338,114 L43.5483338,104.48 C43.5483338,102.695 42.7433338,101.19 40.3633338,101.19 C38.0183338,101.19 37.0383338,102.87 37.0383338,104.48 L37.0383338,114 L35.0783338,114 L35.0783338,104.48 C35.0783338,102.87 34.3783338,101.19 32.0333338,101.19 C29.6533338,101.19 28.6033338,102.87 28.6033338,104.48 L28.6033338,114 L26.6083338,114 Z M77.9796676,81.156 L77.9796676,83.962 L71.2176676,83.962 L71.2176676,114 L68.4116676,114 L68.4116676,83.962 L61.5576676,83.962 L61.5576676,81.156 L77.9796676,81.156 Z M92.9220012,114.368 C87.4940012,114.368 83.0780012,109.952 83.0780012,104.524 C83.0780012,99.096 87.4940012,94.68 92.9220012,94.68 C95.7740012,94.68 98.3960012,95.922 100.190001,97.9 L100.190001,95.002 L102.766001,95.002 L102.766001,114 L100.190001,114 L100.190001,111.148 C98.3960012,113.126 95.8200012,114.368 92.9220012,114.368 Z M85.7000012,104.57 C85.7000012,108.572 88.9660012,111.838 92.9680012,111.838 C96.9700012,111.838 100.236001,108.572 100.236001,104.57 C100.236001,100.568 96.9700012,97.302 92.9680012,97.302 C88.9660012,97.302 85.7000012,100.568 85.7000012,104.57 Z M118.582335,107.836 L124.424335,95.002 L127.138335,95.002 L114.626335,122.464 L111.912335,122.464 L117.248335,110.734 L108.784335,95.002 L111.682335,95.002 L118.582335,107.836 Z M135.272669,114 L132.650669,114 L132.650669,79.96 L135.272669,79.96 L135.272669,114 Z M161.393002,104.524 C161.393002,109.952 156.977002,114.368 151.549002,114.368 C146.121002,114.368 141.705002,109.952 141.705002,104.524 C141.705002,99.096 146.121002,94.68 151.549002,94.68 C156.977002,94.68 161.393002,99.096 161.393002,104.524 Z M144.281002,104.57 C144.281002,108.572 147.547002,111.838 151.549002,111.838 C155.551002,111.838 158.817002,108.572 158.817002,104.57 C158.817002,100.568 155.551002,97.302 151.549002,97.302 C147.547002,97.302 144.281002,100.568 144.281002,104.57 Z M167.595336,114 L167.595336,95.002 L170.171336,95.002 L170.171336,97.072 C170.723336,95.876 172.011336,94.772 173.851336,94.772 C175.737336,94.772 177.071336,95.232 178.221336,96.336 L176.979336,98.268 C176.335336,97.762 175.691336,97.348 173.943336,97.348 C171.781336,97.348 170.171336,99.28 170.171336,100.752 L170.171336,114 L167.595336,114 Z M214.362003,81.156 L214.362003,83.962 L207.600003,83.962 L207.600003,114 L204.794003,114 L204.794003,83.962 L197.940003,83.962 L197.940003,81.156 L214.362003,81.156 Z M220.242337,114 L220.242337,79.96 L222.818337,79.96 L222.818337,97.762 C223.784337,96.06 225.578337,94.772 228.292337,94.772 C233.490337,94.772 235.928337,98.222 235.928337,102.454 L235.928337,114.046 L233.352337,114.046 L233.352337,102.592 C233.352337,100.062 232.156337,97.348 228.338337,97.348 C224.796337,97.348 222.818337,99.878 222.818337,102.178 L222.818337,114 L220.242337,114 Z M245.90267,95.002 L245.90267,114 L243.28067,114 L243.28067,95.002 L245.90267,95.002 Z M246.17867,90.08 C246.17867,90.954 245.44267,91.644 244.56867,91.644 C243.69467,91.644 242.95867,90.954 242.95867,90.08 C242.95867,89.16 243.69467,88.47 244.56867,88.47 C245.44267,88.47 246.17867,89.16 246.17867,90.08 Z M263.237004,94.68 C268.665004,94.68 273.081004,99.096 273.081004,104.524 C273.081004,109.952 268.665004,114.368 263.237004,114.368 C260.339004,114.368 257.717004,113.126 255.923004,111.102 L255.923004,114 L253.347004,114 L253.347004,79.96 L255.923004,79.96 L255.923004,97.946 C257.717004,95.922 260.339004,94.68 263.237004,94.68 Z M255.969004,104.57 C255.969004,108.572 259.235004,111.838 263.237004,111.838 C267.239004,111.838 270.505004,108.572 270.505004,104.57 C270.505004,100.568 267.239004,97.302 263.237004,97.302 C259.235004,97.302 255.969004,100.568 255.969004,104.57 Z M297.637338,104.524 C297.637338,109.952 293.221338,114.368 287.793338,114.368 C282.365338,114.368 277.949338,109.952 277.949338,104.524 C277.949338,99.096 282.365338,94.68 287.793338,94.68 C293.221338,94.68 297.637338,99.096 297.637338,104.524 Z M280.525338,104.57 C280.525338,108.572 283.791338,111.838 287.793338,111.838 C291.795338,111.838 295.061338,108.572 295.061338,104.57 C295.061338,100.568 291.795338,97.302 287.793338,97.302 C283.791338,97.302 280.525338,100.568 280.525338,104.57 Z M319.893671,79.96 L322.469671,79.96 L322.469671,114 L319.893671,114 L319.893671,111.102 C318.099671,113.126 315.477671,114.368 312.579671,114.368 C307.151671,114.368 302.735671,109.952 302.735671,104.524 C302.735671,99.096 307.151671,94.68 312.579671,94.68 C315.477671,94.68 318.099671,95.922 319.893671,97.946 L319.893671,79.96 Z M305.311671,104.57 C305.311671,108.572 308.577671,111.838 312.579671,111.838 C316.581671,111.838 319.847671,108.572 319.847671,104.57 C319.847671,100.568 316.581671,97.302 312.579671,97.302 C308.577671,97.302 305.311671,100.568 305.311671,104.57 Z M338.056005,111.746 C341.138005,111.746 343.116005,110.136 344.312005,108.296 L346.612005,109.676 C345.232005,112.068 342.334005,114.368 338.056005,114.368 C332.352005,114.368 328.212005,110.228 328.212005,104.524 C328.212005,98.774 332.352005,94.68 338.056005,94.68 C344.496005,94.68 347.900005,99.648 347.900005,104.386 C347.900005,105.26 347.808005,105.674 347.440005,105.674 L330.926005,105.674 C331.386005,108.894 333.916005,111.746 338.056005,111.746 Z M345.094005,103.19 C344.818005,100.706 342.472005,97.302 338.056005,97.302 C333.410005,97.302 331.110005,100.89 330.972005,103.19 L345.094005,103.19 Z M362.842339,114.368 C357.414339,114.368 352.998339,109.952 352.998339,104.524 C352.998339,99.096 357.414339,94.68 362.842339,94.68 C365.694339,94.68 368.316339,95.922 370.110339,97.9 L370.110339,95.002 L372.686339,95.002 L372.686339,114 L370.110339,114 L370.110339,111.148 C368.316339,113.126 365.740339,114.368 362.842339,114.368 Z M355.620339,104.57 C355.620339,108.572 358.886339,111.838 362.888339,111.838 C366.890339,111.838 370.156339,108.572 370.156339,104.57 C370.156339,100.568 366.890339,97.302 362.888339,97.302 C358.886339,97.302 355.620339,100.568 355.620339,104.57 Z M382.798672,95.002 L382.798672,106.456 C382.798672,110.182 384.178672,111.884 387.260672,111.884 C390.388672,111.884 391.722672,110.182 391.722672,106.456 L391.722672,95.002 L394.298672,95.002 L394.298672,106.87 C394.298672,111.746 391.584672,114.368 387.260672,114.368 C382.936672,114.368 380.222672,111.746 380.222672,106.87 L380.222672,95.002 L382.798672,95.002 Z M402.985006,95.002 L407.861006,102.5 L412.737006,95.002 L415.405006,95.002 L409.195006,104.57 L415.313006,114 L412.645006,114 L407.769006,106.502 L402.893006,114 L400.225006,114 L406.435006,104.478 L400.317006,95.002 L402.985006,95.002 Z M438.079506,114.28 C433.949506,114.28 430.589506,110.92 430.589506,106.79 C430.589506,102.66 433.949506,99.3 438.079506,99.3 C440.249506,99.3 442.244506,100.245 443.609506,101.75 L443.609506,99.545 L445.569506,99.545 L445.569506,114 L443.609506,114 L443.609506,111.83 C442.244506,113.335 440.284506,114.28 438.079506,114.28 Z M432.584506,106.825 C432.584506,109.87 435.069506,112.355 438.114506,112.355 C441.159506,112.355 443.644506,109.87 443.644506,106.825 C443.644506,103.78 441.159506,101.295 438.114506,101.295 C435.069506,101.295 432.584506,103.78 432.584506,106.825 Z M451.863673,114 L451.863673,99.545 L453.823673,99.545 L453.823673,101.575 C454.278673,100.49 455.678673,99.405 458.058673,99.405 C462.118673,99.405 464.078673,101.925 464.078673,105.25 L464.078673,114.035 L462.083673,114.035 L462.083673,105.915 C462.083673,103.15 460.858673,101.365 458.058673,101.365 C454.978673,101.365 453.823673,103.605 453.823673,105.775 L453.823673,114 L451.863673,114 Z M481.99284,88.1 L483.95284,88.1 L483.95284,114 L481.99284,114 L481.99284,111.795 C480.62784,113.335 478.63284,114.28 476.42784,114.28 C472.29784,114.28 468.93784,110.92 468.93784,106.79 C468.93784,102.66 472.29784,99.3 476.42784,99.3 C478.63284,99.3 480.62784,100.245 481.99284,101.785 L481.99284,88.1 Z M470.89784,106.825 C470.89784,109.87 473.38284,112.355 476.42784,112.355 C479.47284,112.355 481.95784,109.87 481.95784,106.825 C481.95784,103.78 479.47284,101.295 476.42784,101.295 C473.38284,101.295 470.89784,103.78 470.89784,106.825 Z M502.981174,114 L500.846174,114 L500.846174,89.01 L502.981174,89.01 L502.981174,114 Z M509.415341,88.24 L511.270341,88.24 L511.270341,92.335 C511.270341,93.07 510.990341,93.56 510.640341,93.98 L509.940341,93.98 C510.290341,93.56 510.570341,93.07 510.570341,92.335 L510.570341,90.76 L509.415341,90.76 L509.415341,88.24 Z M516.549508,114 L516.549508,99.545 L518.544508,99.545 L518.544508,101.26 C518.894508,100.315 519.909508,99.265 521.974508,99.265 C524.459508,99.265 525.509508,100.315 526.069508,101.715 C526.699508,100.385 527.854508,99.23 530.304508,99.23 C533.594508,99.23 535.449508,101.33 535.449508,103.955 L535.449508,114 L533.489508,114 L533.489508,104.48 C533.489508,102.695 532.684508,101.19 530.304508,101.19 C527.959508,101.19 526.979508,102.87 526.979508,104.48 L526.979508,114 L525.019508,114 L525.019508,104.48 C525.019508,102.87 524.319508,101.19 521.974508,101.19 C519.594508,101.19 518.544508,102.87 518.544508,104.48 L518.544508,114 L516.549508,114 Z M558.712842,114.28 C554.582842,114.28 551.222842,110.92 551.222842,106.79 C551.222842,102.66 554.582842,99.3 558.712842,99.3 C560.882842,99.3 562.877842,100.245 564.242842,101.75 L564.242842,99.545 L566.202842,99.545 L566.202842,114 L564.242842,114 L564.242842,111.83 C562.877842,113.335 560.917842,114.28 558.712842,114.28 Z M553.217842,106.825 C553.217842,109.87 555.702842,112.355 558.747842,112.355 C561.792842,112.355 564.277842,109.87 564.277842,106.825 C564.277842,103.78 561.792842,101.295 558.747842,101.295 C555.702842,101.295 553.217842,103.78 553.217842,106.825 Z M20.915,133.455 C20.005,131.88 18.815,131.005 16.82,131.005 C14.16,131.005 12.725,132.475 12.725,134.645 C12.725,136.64 14.825,137.69 17.03,138.985 C20.25,140.875 24.135,143.045 24.135,147.56 C24.135,151.305 21.405,154.21 17.135,154.21 C12.83,154.21 10.59,152.005 9.295,148.995 L11.255,148.12 C12.2,150.465 13.95,152.075 17.135,152.075 C20.04,152.075 22,150.15 22,147.56 C22,144.41 19.34,142.87 16.82,141.365 C13.565,139.44 10.555,138.355 10.555,134.645 C10.555,131.285 13.075,128.87 16.82,128.87 C20.04,128.87 21.79,130.62 22.84,132.51 L20.915,133.455 Z M42.7491669,146.79 C42.7491669,150.92 39.3891669,154.28 35.2591669,154.28 C31.1291669,154.28 27.7691669,150.92 27.7691669,146.79 C27.7691669,142.66 31.1291669,139.3 35.2591669,139.3 C39.3891669,139.3 42.7491669,142.66 42.7491669,146.79 Z M29.7291669,146.825 C29.7291669,149.87 32.2141669,152.355 35.2591669,152.355 C38.3041669,152.355 40.7891669,149.87 40.7891669,146.825 C40.7891669,143.78 38.3041669,141.295 35.2591669,141.295 C32.2141669,141.295 29.7291669,143.78 29.7291669,146.825 Z M48.3083338,141.505 L46.3483338,141.505 L46.3483338,139.545 L48.3083338,139.545 L48.3083338,131.145 C48.3083338,129.395 49.2533338,127.89 51.4233338,127.89 C52.2983338,127.89 52.8583338,127.96 53.5933338,128.17 L53.5933338,130.06 C52.9983338,129.85 52.3683338,129.71 51.9483338,129.71 C50.9333338,129.71 50.2683338,129.99 50.2683338,131.495 L50.2683338,139.545 L53.6983338,139.545 L53.6983338,141.505 L50.2683338,141.505 L50.2683338,154 L48.3083338,154 L48.3083338,141.505 Z M59.5725007,141.505 L57.6125007,141.505 L57.6125007,139.545 L59.5725007,139.545 L59.5725007,133.21 L61.5325007,133.21 L61.5325007,139.545 L64.9275007,139.545 L64.9275007,141.505 L61.5325007,141.505 L61.5325007,154 L59.5725007,154 L59.5725007,141.505 Z M74.7566676,150.15 L79.5866676,139.09 L84.4166676,150.15 L89.0716676,139.545 L90.9966676,139.545 L84.4166676,154.525 L79.5866676,143.57 L74.7566676,154.525 L68.1766676,139.545 L70.1016676,139.545 L74.7566676,150.15 Z M101.735834,154.28 C97.6058345,154.28 94.2458345,150.92 94.2458345,146.79 C94.2458345,142.66 97.6058345,139.3 101.735834,139.3 C103.905834,139.3 105.900834,140.245 107.265834,141.75 L107.265834,139.545 L109.225834,139.545 L109.225834,154 L107.265834,154 L107.265834,151.83 C105.900834,153.335 103.940834,154.28 101.735834,154.28 Z M96.2408345,146.825 C96.2408345,149.87 98.7258345,152.355 101.770834,152.355 C104.815834,152.355 107.300834,149.87 107.300834,146.825 C107.300834,143.78 104.815834,141.295 101.770834,141.295 C98.7258345,141.295 96.2408345,143.78 96.2408345,146.825 Z M115.030001,154 L115.030001,139.545 L116.990001,139.545 L116.990001,141.12 C117.410001,140.21 118.390001,139.37 119.790001,139.37 C121.225001,139.37 122.240001,139.72 123.115001,140.56 L122.170001,142.03 C121.680001,141.645 121.190001,141.33 119.860001,141.33 C118.215001,141.33 116.990001,142.8 116.990001,143.92 L116.990001,154 L115.030001,154 Z M134.554168,152.285 C136.899168,152.285 138.404168,151.06 139.314168,149.66 L141.064168,150.71 C140.014168,152.53 137.809168,154.28 134.554168,154.28 C130.214168,154.28 127.064168,151.13 127.064168,146.79 C127.064168,142.415 130.214168,139.3 134.554168,139.3 C139.454168,139.3 142.044168,143.08 142.044168,146.685 C142.044168,147.35 141.974168,147.665 141.694168,147.665 L129.129168,147.665 C129.479168,150.115 131.404168,152.285 134.554168,152.285 Z M139.909168,145.775 C139.699168,143.885 137.914168,141.295 134.554168,141.295 C131.019168,141.295 129.269168,144.025 129.164168,145.775 L139.909168,145.775 Z M169.892502,131.145 L160.057502,131.145 L160.057502,139.055 L169.892502,139.055 L169.892502,141.225 L160.057502,141.225 L160.057502,151.865 L169.892502,151.865 L169.892502,154 L157.922502,154 L157.922502,129.01 L169.892502,129.01 L169.892502,131.145 Z M175.941669,154 L175.941669,139.545 L177.901669,139.545 L177.901669,141.575 C178.356669,140.49 179.756669,139.405 182.136669,139.405 C186.196669,139.405 188.156669,141.925 188.156669,145.25 L188.156669,154.035 L186.161669,154.035 L186.161669,145.915 C186.161669,143.15 184.936669,141.365 182.136669,141.365 C179.056669,141.365 177.901669,143.605 177.901669,145.775 L177.901669,154 L175.941669,154 Z M206.350836,139.545 L208.345836,139.545 L208.345836,153.65 C208.345836,158.27 205.335836,160.79 201.030836,160.79 C197.075836,160.79 194.205836,158.795 193.960836,156.135 L195.920836,156.135 C196.200836,157.535 197.915836,158.83 201.030836,158.83 C204.495836,158.83 206.350836,156.975 206.350836,153.65 L206.350836,151.795 C204.985836,153.335 202.990836,154.28 200.785836,154.28 C196.655836,154.28 193.295836,150.92 193.295836,146.79 C193.295836,142.66 196.655836,139.3 200.785836,139.3 C202.990836,139.3 204.985836,140.245 206.350836,141.785 L206.350836,139.545 Z M195.255836,146.825 C195.255836,149.87 197.740836,152.355 200.785836,152.355 C203.830836,152.355 206.315836,149.87 206.315836,146.825 C206.315836,143.78 203.830836,141.295 200.785836,141.295 C197.740836,141.295 195.255836,143.78 195.255836,146.825 Z M216.005003,139.545 L216.005003,154 L214.010003,154 L214.010003,139.545 L216.005003,139.545 Z M216.215003,135.8 C216.215003,136.465 215.655003,136.99 214.990003,136.99 C214.325003,136.99 213.765003,136.465 213.765003,135.8 C213.765003,135.1 214.325003,134.575 214.990003,134.575 C215.655003,134.575 216.215003,135.1 216.215003,135.8 Z M222.33417,154 L222.33417,139.545 L224.29417,139.545 L224.29417,141.575 C224.74917,140.49 226.14917,139.405 228.52917,139.405 C232.58917,139.405 234.54917,141.925 234.54917,145.25 L234.54917,154.035 L232.55417,154.035 L232.55417,145.915 C232.55417,143.15 231.32917,141.365 228.52917,141.365 C225.44917,141.365 224.29417,143.605 224.29417,145.775 L224.29417,154 L222.33417,154 Z M246.828337,152.285 C249.173337,152.285 250.678337,151.06 251.588337,149.66 L253.338337,150.71 C252.288337,152.53 250.083337,154.28 246.828337,154.28 C242.488337,154.28 239.338337,151.13 239.338337,146.79 C239.338337,142.415 242.488337,139.3 246.828337,139.3 C251.728337,139.3 254.318337,143.08 254.318337,146.685 C254.318337,147.35 254.248337,147.665 253.968337,147.665 L241.403337,147.665 C241.753337,150.115 243.678337,152.285 246.828337,152.285 Z M252.183337,145.775 C251.973337,143.885 250.188337,141.295 246.828337,141.295 C243.293337,141.295 241.543337,144.025 241.438337,145.775 L252.183337,145.775 Z M265.372503,152.285 C267.717503,152.285 269.222503,151.06 270.132503,149.66 L271.882504,150.71 C270.832503,152.53 268.627503,154.28 265.372503,154.28 C261.032504,154.28 257.882504,151.13 257.882504,146.79 C257.882504,142.415 261.032504,139.3 265.372503,139.3 C270.272503,139.3 272.862503,143.08 272.862503,146.685 C272.862503,147.35 272.792504,147.665 272.512503,147.665 L259.947504,147.665 C260.297504,150.115 262.222504,152.285 265.372503,152.285 Z M270.727503,145.775 C270.517503,143.885 268.732503,141.295 265.372503,141.295 C261.837504,141.295 260.087504,144.025 259.982504,145.775 L270.727503,145.775 Z M277.33667,154 L277.33667,139.545 L279.29667,139.545 L279.29667,141.12 C279.71667,140.21 280.69667,139.37 282.09667,139.37 C283.53167,139.37 284.54667,139.72 285.42167,140.56 L284.47667,142.03 C283.98667,141.645 283.49667,141.33 282.16667,141.33 C280.52167,141.33 279.29667,142.8 279.29667,143.92 L279.29667,154 L277.33667,154 Z M292.905837,152.635 C292.905837,153.51 292.170837,154.245 291.295837,154.245 C290.420837,154.245 289.685837,153.51 289.685837,152.635 C289.685837,151.76 290.420837,151.025 291.295837,151.025 C292.170837,151.025 292.905837,151.76 292.905837,152.635 Z M311.409171,147.42 C311.409171,150.78 313.754171,152.39 316.519171,152.39 C319.249171,152.39 321.629171,150.78 321.629171,147.42 L321.629171,129.01 L323.764171,129.01 L323.764171,147.14 C323.764171,151.865 320.614171,154.49 316.519171,154.49 C312.389171,154.49 309.239171,151.795 309.239171,147.14 L309.239171,129.01 L311.409171,129.01 L311.409171,147.42 Z M331.003338,129.01 L337.338338,139.44 L343.673338,129.01 L346.263338,129.01 L338.598338,141.61 L346.088338,154 L343.533338,154 L337.268338,143.5 L330.898338,154 L328.343338,154 L335.973338,141.435 L328.553338,129.01 L331.003338,129.01 Z M364.171672,151.865 L369.736672,151.865 C375.301672,151.865 379.361672,147.735 379.361672,141.505 C379.361672,135.24 375.301672,131.145 369.736672,131.145 L364.171672,131.145 L364.171672,151.865 Z M381.531672,141.505 C381.531672,148.82 376.631672,154 370.366672,154 L362.036672,154 L362.036672,129.01 L370.366672,129.01 C376.631672,129.01 381.531672,134.19 381.531672,141.505 Z M393.320839,152.285 C395.665839,152.285 397.170839,151.06 398.080839,149.66 L399.830839,150.71 C398.780839,152.53 396.575839,154.28 393.320839,154.28 C388.980839,154.28 385.830839,151.13 385.830839,146.79 C385.830839,142.415 388.980839,139.3 393.320839,139.3 C398.220839,139.3 400.810839,143.08 400.810839,146.685 C400.810839,147.35 400.740839,147.665 400.460839,147.665 L387.895839,147.665 C388.245839,150.115 390.170839,152.285 393.320839,152.285 Z M398.675839,145.775 C398.465839,143.885 396.680839,141.295 393.320839,141.295 C389.785839,141.295 388.035839,144.025 387.930839,145.775 L398.675839,145.775 Z M412.495006,142.59 C411.935006,141.925 411.200006,141.295 409.590006,141.295 C407.735006,141.295 406.860006,142.065 406.860006,143.22 C406.860006,144.27 407.875006,144.9 409.555006,145.355 C412.320006,146.125 414.315006,147.42 414.315006,149.87 C414.315006,152.6 411.935006,154.21 409.240006,154.21 C406.545006,154.21 405.110006,153.055 404.165006,151.585 L405.810006,150.57 C406.510006,151.585 407.350006,152.25 409.240006,152.25 C410.885006,152.25 412.355006,151.34 412.355006,149.87 C412.355006,148.365 410.815006,147.77 408.890006,147.175 C406.790006,146.545 404.900006,145.845 404.900006,143.22 C404.900006,140.945 406.860006,139.335 409.590006,139.335 C411.865006,139.335 413.090006,140.245 414.070006,141.435 L412.495006,142.59 Z M420.854173,139.545 L420.854173,154 L418.859172,154 L418.859172,139.545 L420.854173,139.545 Z M421.064173,135.8 C421.064173,136.465 420.504173,136.99 419.839173,136.99 C419.174172,136.99 418.614172,136.465 418.614172,135.8 C418.614172,135.1 419.174172,134.575 419.839173,134.575 C420.504173,134.575 421.064173,135.1 421.064173,135.8 Z M439.188339,139.545 L441.183339,139.545 L441.183339,153.65 C441.183339,158.27 438.173339,160.79 433.868339,160.79 C429.913339,160.79 427.043339,158.795 426.798339,156.135 L428.758339,156.135 C429.038339,157.535 430.753339,158.83 433.868339,158.83 C437.333339,158.83 439.188339,156.975 439.188339,153.65 L439.188339,151.795 C437.823339,153.335 435.828339,154.28 433.623339,154.28 C429.493339,154.28 426.133339,150.92 426.133339,146.79 C426.133339,142.66 429.493339,139.3 433.623339,139.3 C435.828339,139.3 437.823339,140.245 439.188339,141.785 L439.188339,139.545 Z M428.093339,146.825 C428.093339,149.87 430.578339,152.355 433.623339,152.355 C436.668339,152.355 439.153339,149.87 439.153339,146.825 C439.153339,143.78 436.668339,141.295 433.623339,141.295 C430.578339,141.295 428.093339,143.78 428.093339,146.825 Z M447.022506,154 L447.022506,139.545 L448.982506,139.545 L448.982506,141.575 C449.437506,140.49 450.837506,139.405 453.217506,139.405 C457.277506,139.405 459.237506,141.925 459.237506,145.25 L459.237506,154.035 L457.242506,154.035 L457.242506,145.915 C457.242506,143.15 456.017506,141.365 453.217506,141.365 C450.137506,141.365 448.982506,143.605 448.982506,145.775 L448.982506,154 L447.022506,154 Z M471.516673,152.285 C473.861673,152.285 475.366673,151.06 476.276673,149.66 L478.026673,150.71 C476.976673,152.53 474.771673,154.28 471.516673,154.28 C467.176673,154.28 464.026673,151.13 464.026673,146.79 C464.026673,142.415 467.176673,139.3 471.516673,139.3 C476.416673,139.3 479.006673,143.08 479.006673,146.685 C479.006673,147.35 478.936673,147.665 478.656673,147.665 L466.091673,147.665 C466.441673,150.115 468.366673,152.285 471.516673,152.285 Z M476.871673,145.775 C476.661673,143.885 474.876673,141.295 471.516673,141.295 C467.981673,141.295 466.231673,144.025 466.126673,145.775 L476.871673,145.775 Z M483.48084,154 L483.48084,139.545 L485.44084,139.545 L485.44084,141.12 C485.86084,140.21 486.84084,139.37 488.24084,139.37 C489.67584,139.37 490.69084,139.72 491.56584,140.56 L490.62084,142.03 C490.13084,141.645 489.64084,141.33 488.31084,141.33 C486.66584,141.33 485.44084,142.8 485.44084,143.92 L485.44084,154 L483.48084,154 Z M499.050007,152.635 C499.050007,153.51 498.315007,154.245 497.440007,154.245 C496.565007,154.245 495.830007,153.51 495.830007,152.635 C495.830007,151.76 496.565007,151.025 497.440007,151.025 C498.315007,151.025 499.050007,151.76 499.050007,152.635 Z M12.9,193.865 L19.2,193.865 L19.2,196 L10.765,196 L10.765,171.01 L12.9,171.01 L12.9,193.865 Z M31.0241669,194.285 C33.3691669,194.285 34.8741669,193.06 35.7841669,191.66 L37.5341669,192.71 C36.4841669,194.53 34.2791669,196.28 31.0241669,196.28 C26.6841669,196.28 23.5341669,193.13 23.5341669,188.79 C23.5341669,184.415 26.6841669,181.3 31.0241669,181.3 C35.9241669,181.3 38.5141669,185.08 38.5141669,188.685 C38.5141669,189.35 38.4441669,189.665 38.1641669,189.665 L25.5991669,189.665 C25.9491669,192.115 27.8741669,194.285 31.0241669,194.285 Z M36.3791669,187.775 C36.1691669,185.885 34.3841669,183.295 31.0241669,183.295 C27.4891669,183.295 25.7391669,186.025 25.6341669,187.775 L36.3791669,187.775 Z M49.8833338,196.28 C45.7533338,196.28 42.3933338,192.92 42.3933338,188.79 C42.3933338,184.66 45.7533338,181.3 49.8833338,181.3 C52.0533338,181.3 54.0483338,182.245 55.4133338,183.75 L55.4133338,181.545 L57.3733338,181.545 L57.3733338,196 L55.4133338,196 L55.4133338,193.83 C54.0483338,195.335 52.0883338,196.28 49.8833338,196.28 Z M44.3883338,188.825 C44.3883338,191.87 46.8733338,194.355 49.9183338,194.355 C52.9633338,194.355 55.4483338,191.87 55.4483338,188.825 C55.4483338,185.78 52.9633338,183.295 49.9183338,183.295 C46.8733338,183.295 44.3883338,185.78 44.3883338,188.825 Z M75.3925007,170.1 L77.3525007,170.1 L77.3525007,196 L75.3925007,196 L75.3925007,193.795 C74.0275007,195.335 72.0325007,196.28 69.8275007,196.28 C65.6975007,196.28 62.3375007,192.92 62.3375007,188.79 C62.3375007,184.66 65.6975007,181.3 69.8275007,181.3 C72.0325007,181.3 74.0275007,182.245 75.3925007,183.785 L75.3925007,170.1 Z M64.2975007,188.825 C64.2975007,191.87 66.7825007,194.355 69.8275007,194.355 C72.8725007,194.355 75.3575007,191.87 75.3575007,188.825 C75.3575007,185.78 72.8725007,183.295 69.8275007,183.295 C66.7825007,183.295 64.2975007,185.78 64.2975007,188.825 Z M89.2116676,194.285 C91.5566676,194.285 93.0616676,193.06 93.9716676,191.66 L95.7216676,192.71 C94.6716676,194.53 92.4666676,196.28 89.2116676,196.28 C84.8716676,196.28 81.7216676,193.13 81.7216676,188.79 C81.7216676,184.415 84.8716676,181.3 89.2116676,181.3 C94.1116676,181.3 96.7016676,185.08 96.7016676,188.685 C96.7016676,189.35 96.6316676,189.665 96.3516676,189.665 L83.7866676,189.665 C84.1366676,192.115 86.0616676,194.285 89.2116676,194.285 Z M94.5666676,187.775 C94.3566676,185.885 92.5716676,183.295 89.2116676,183.295 C85.6766676,183.295 83.9266676,186.025 83.8216676,187.775 L94.5666676,187.775 Z M101.175834,196 L101.175834,181.545 L103.135835,181.545 L103.135835,183.12 C103.555835,182.21 104.535834,181.37 105.935834,181.37 C107.370835,181.37 108.385835,181.72 109.260835,182.56 L108.315834,184.03 C107.825834,183.645 107.335834,183.33 106.005834,183.33 C104.360834,183.33 103.135835,184.8 103.135835,185.92 L103.135835,196 L101.175834,196 Z M116.745001,194.635 C116.745001,195.51 116.010001,196.245 115.135001,196.245 C114.260001,196.245 113.525001,195.51 113.525001,194.635 C113.525001,193.76 114.260001,193.025 115.135001,193.025 C116.010001,193.025 116.745001,193.76 116.745001,194.635 Z M139.985335,168.868 L150.093335,168.868 L158.681335,196 L150.093335,196 L148.763335,192.086 L141.353335,192.086 L140.023335,196 L131.397335,196 L139.985335,168.868 Z M145.039335,180.306 L143.177335,186.044 L146.825335,186.044 L145.039335,180.306 Z M171.253002,167.88 L171.253002,196 L162.513002,196 L162.513002,167.88 L171.253002,167.88 Z M185.496669,167.88 L185.496669,196 L176.756669,196 L176.756669,167.88 L185.496669,167.88 Z M204.826003,186.766 C204.826003,181.902 208.474003,177.038 215.732003,177.038 C222.990003,177.038 226.638003,181.902 226.638003,186.766 C226.638003,191.63 222.990003,196.494 215.732003,196.494 C208.474003,196.494 204.826003,191.63 204.826003,186.766 Z M212.920003,186.766 C212.920003,188.552 213.870003,190.3 215.732003,190.3 C217.594003,190.3 218.544003,188.552 218.544003,186.766 C218.544003,184.98 217.594003,183.232 215.732003,183.232 C213.870003,183.232 212.920003,184.98 212.920003,186.766 Z M231.83767,183.194 L229.70967,183.194 L229.70967,177.38 L231.83767,177.38 L231.83767,175.594 C231.83767,170.54 234.45967,167.766 240.19767,167.766 C242.02167,167.766 243.46567,168.032 244.75767,168.222 L244.75767,172.858 C243.95967,172.668 243.08567,172.516 242.28767,172.516 C241.29967,172.516 240.53967,173.124 240.53967,174.986 L240.53967,177.38 L244.26367,177.38 L244.26367,183.194 L240.53967,183.194 L240.53967,196 L231.83767,196 L231.83767,183.194 Z M265.911004,183.194 L263.783004,183.194 L263.783004,177.38 L265.911004,177.38 L265.911004,172.022 L274.613004,172.022 L274.613004,177.38 L277.691004,177.38 L277.691004,183.194 L274.613004,183.194 L274.613004,196 L265.911004,196 L265.911004,183.194 Z M282.396671,196 L282.396671,167.88 L291.136671,167.88 L291.136671,179.242 C291.706671,178.102 293.644671,177.076 295.962671,177.076 C300.978671,177.076 303.676671,179.66 303.676671,183.612 L303.676671,196 L295.734671,196 L295.734671,185.322 C295.734671,184.22 295.240671,182.814 293.454671,182.814 C291.782671,182.814 291.136671,184.22 291.136671,185.322 L291.136671,196 L282.396671,196 Z M315.602337,184.22 L320.542337,184.22 C320.542337,183.232 319.782337,181.94 318.034337,181.94 C316.286337,181.94 315.602337,183.308 315.602337,184.22 Z M328.636337,186.994 C328.636337,187.26 328.598337,187.526 328.598337,187.792 L315.488337,187.792 C315.488337,187.944 315.450337,188.096 315.450337,188.286 C315.450337,189.35 315.754337,191.668 318.148337,191.668 C319.592337,191.668 320.048337,190.87 320.504337,189.806 L328.484337,190.756 C327.154337,193.682 324.152337,196.608 317.768337,196.608 C310.700337,196.608 307.128337,191.744 307.128337,186.88 C307.128337,181.978 310.700337,177.114 317.844337,177.114 C325.406337,177.114 328.636337,181.864 328.636337,186.994 Z M360.771671,186.462 C360.771671,184.676 359.783671,182.928 357.807671,182.928 C355.831671,182.928 354.843671,184.676 354.843671,186.462 C354.843671,188.248 355.831671,189.996 357.807671,189.996 C359.783671,189.996 360.771671,188.248 360.771671,186.462 Z M369.435671,177.38 L369.435671,196 L360.923671,196 L360.923671,193.872 C359.973671,195.468 358.339671,196.38 355.679671,196.38 C349.865671,196.38 346.977671,191.592 346.977671,186.804 C346.977671,181.978 349.865671,177.19 355.679671,177.19 C358.339671,177.19 359.973671,178.102 360.923671,179.394 L360.923671,177.38 L369.435671,177.38 Z M382.957338,179.318 C384.135338,178.026 385.693338,177.114 388.201338,177.114 C393.863338,177.114 396.675338,181.94 396.675338,186.804 C396.675338,191.63 393.863338,196.456 388.201338,196.456 C385.503338,196.456 384.021338,195.24 382.957338,193.948 L382.957338,196 L374.255338,196 L374.255338,167.918 L382.957338,167.918 L382.957338,179.318 Z M388.391338,186.69 C388.391338,185.018 387.479338,183.346 385.579338,183.346 C383.679338,183.346 382.767338,185.018 382.767338,186.69 C382.767338,188.362 383.679338,190.034 385.579338,190.034 C387.479338,190.034 388.391338,188.362 388.391338,186.69 Z M399.329005,186.766 C399.329005,181.902 402.977005,177.038 410.235005,177.038 C417.493005,177.038 421.141005,181.902 421.141005,186.766 C421.141005,191.63 417.493005,196.494 410.235005,196.494 C402.977005,196.494 399.329005,191.63 399.329005,186.766 Z M407.423005,186.766 C407.423005,188.552 408.373005,190.3 410.235005,190.3 C412.097005,190.3 413.047005,188.552 413.047005,186.766 C413.047005,184.98 412.097005,183.232 410.235005,183.232 C408.373005,183.232 407.423005,184.98 407.423005,186.766 Z M431.660672,177.38 L434.662672,185.436 L437.208672,177.38 L445.530672,177.38 L437.778672,196 L431.546672,196 L423.794672,177.38 L431.660672,177.38 Z M456.240339,184.22 L461.180339,184.22 C461.180339,183.232 460.420339,181.94 458.672339,181.94 C456.924339,181.94 456.240339,183.308 456.240339,184.22 Z M469.274339,186.994 C469.274339,187.26 469.236339,187.526 469.236339,187.792 L456.126339,187.792 C456.126339,187.944 456.088339,188.096 456.088339,188.286 C456.088339,189.35 456.392339,191.668 458.786339,191.668 C460.230339,191.668 460.686339,190.87 461.142339,189.806 L469.122339,190.756 C467.792339,193.682 464.790339,196.608 458.406339,196.608 C451.338339,196.608 447.766339,191.744 447.766339,186.88 C447.766339,181.978 451.338339,177.114 458.482339,177.114 C466.044339,177.114 469.274339,181.864 469.274339,186.994 Z M481.428006,192.276 C481.428006,194.556 479.604006,196.38 477.324006,196.38 C475.044006,196.38 473.220006,194.556 473.220006,192.276 C473.220006,189.996 475.044006,188.172 477.324006,188.172 C479.604006,188.172 481.428006,189.996 481.428006,192.276 Z" id="I’mTaylorThibodeauxandI’maSoftwareEngineer.UXDesigner.Leader.Alloftheabove." fill="#FFFFFF" fill-rule="nonzero"></path>
            <path d="M8,183.545424 C11.3398079,174.495999 11.3912561,202.889816 16.7411119,184.95913 L21.8404167,178.916048 C25.1005079,173.627212 23.7805287,186.8801 26.0795097,192.677506 C27.6072092,196.529949 33.0654294,183.034902 36.3414565,184.95913 C38.2837373,186.09996 33.6035116,192.181818 35.7279249,192.677506 C39.2824094,193.506872 42.0140335,186.115826 45.5396552,187.10534 C47.7985827,187.739339 43.4579483,196.76052 45.487135,195.41656 L47.5974925,195.792789 C53.0917756,192.153845 57.9932493,187.344718 63.4108504,183.545424 C64.8935568,182.505621 66.9649672,179.929124 68.2236115,181.327959 C69.9491958,183.245742 66.7241896,188.871695 68.9708309,189.724685 C73.3414025,191.384075 77.9366302,186.226564 82.501947,186.749063 C83.8209111,186.900019 82.3333865,190.420433 83.390016,191.374959 C84.5151251,192.391346 86.2446291,191.73631 87.6226675,191.374959 C94.098627,189.676824 100.206709,185.395825 106.835515,185.22705 C108.419975,185.186708 106.628329,189.173749 107.324908,190.873321 C107.652114,191.671665 109.080901,190.877889 109.463913,191.640028 C110.520915,193.743312 110.654371,196.335279 111.2496,198.682904" id="Path-4" stroke="#AB0404" stroke-width="4" stroke-linecap="round" transform="translate(59.624800, 188.188904) scale(-1, 1) translate(-59.624800, -188.188904) "></path>
            <path d="M323,134 C379.810544,138.219745 437.513383,142.926671 492,159" id="Path-2" stroke="#AB0404" stroke-width="5" stroke-linecap="round"></path>
            <path d="M333,157 C353.058873,152.680867 441.492724,123.310047 484,132.919808" id="Path-3" stroke="#AB0404" stroke-width="5" stroke-linecap="round"></path>
            <path d="M0.246099061,139.980539 C64.7486997,148.566288 160.88126,150.739442 288.64378,146.5" id="Path-5" stroke="#B00000" stroke-width="5" stroke-linecap="round"></path>
        </g>
    </g>
</svg>
