<?xml version="1.0" encoding="UTF-8"?>
<svg width="551px" height="722px" viewBox="0 0 551 722" version="1.1" xmlns="http://www.w3.org/2000/svg" xmlns:xlink="http://www.w3.org/1999/xlink">
    <!-- Generator: Sketch 58 (84663) - https://sketch.com -->
    <title>Group 6</title>
    <desc>Created with Sketch.</desc>
    <g id="Page-1" stroke="none" stroke-width="1" fill="none" fill-rule="evenodd">
        <g id="Group-6">
            <g id="tree-tile" transform="translate(84.000000, 0.000000)">
                <polygon id="Path" fill="#3E3E49" points="156 406 276 346 276 386 156 446 36 386 36 346"></polygon>
                <path d="M245.703342,376.865231 C233.790176,379.886591 219.255799,385.911418 203.791813,400.730547 C199.16341,405.165943 183.232806,406.922427 156,406 C136.046465,411.578343 117.161631,408.245009 99.3454974,396 C82.3617115,384.327062 67.5455385,384.884058 54.6712202,372.270236 C40.2807616,358.170951 34.0570216,349.414206 36,346 L156,286 L276,346 C275.213226,361.653897 265.11434,371.942308 245.703342,376.865231 Z" id="Path" fill="#C1D84C"></path>
                <ellipse id="Oval" fill="#C1D84C" cx="158" cy="120" rx="158" ry="120"></ellipse>
                <ellipse id="Oval" fill="#9DB137" cx="157.5" cy="329.5" rx="68.5" ry="26.5"></ellipse>
                <path d="M115.353594,331.967161 C138.994623,336.65572 153.12532,339 157.745684,339 C162.366047,339 176.517548,336.65572 200.200184,331.967161 C185.632615,317.67602 177.709482,298.250228 176.430787,273.689786 C175.152093,249.129344 175.152093,226.207564 176.430787,204.924446 L233.397115,166.822983 L241,158.063166 L176.430787,187.060197 L231.346445,76.6205337 L213.367173,80.2930293 L167.642936,158.063166 L169.493919,45 L149.04242,45 L149.182003,158.063166 L107.782344,76.6205337 L90.06518,72.9480381 L137.961692,187.060197 L74,158.063166 L78.8932605,166.822983 L137.961692,204.924446 C139.321805,225.020625 139.321805,247.942405 137.961692,273.689786 C136.601579,299.437167 129.065547,318.862958 115.353594,331.967161 Z" id="Path-6" fill="#3E3E49"></path>
                <g id="Group-4" transform="translate(226.000000, 161.000000) scale(-1, -1) translate(-226.000000, -161.000000) translate(218.000000, 153.000000)">
                    <path d="M5.40386698,12.1353132 C6.92238871,12.1431206 10.2077771,12.1600122 15.2600322,12.1859879 C11.5617876,8.64210924 9.21250358,6.46814459 8.21218002,5.66409396 C7.66809755,5.22676561 7.23561674,4.9166971 6.91473759,4.73388844 C6.27723321,4.3706946 5.76061134,4.18808036 5.364872,4.18598792 C3.08708942,4.17433466 1.24931112,5.94434515 1.26003221,8.13947477 C1.27084745,10.3346044 3.1260844,12.1236022 5.40386698,12.1353132 Z" id="Oval" fill="#3E3E49" transform="translate(8.260032, 8.185988) rotate(-46.000000) translate(-8.260032, -8.185988) "></path>
                    <circle id="Oval" fill="#FFFFFF" transform="translate(6.760032, 11.685988) rotate(-46.000000) translate(-6.760032, -11.685988) " cx="6.76003221" cy="11.6859879" r="1"></circle>
                </g>
            </g>
            <g id="flag-tile" transform="translate(224.000000, 223.000000)">
                <polygon id="Path" fill="#3E3E49" points="122 231 242 171 242 211 122 271 2 211 2 171"></polygon>
                <path d="M211.703342,201.865231 C199.790176,204.886591 185.255799,210.911418 169.791813,225.730547 C165.16341,230.165943 149.232806,231.922427 122,231 C102.046465,236.578343 83.1616309,233.245009 65.3454974,221 C48.3617115,209.327062 33.5455385,209.884058 20.6712202,197.270236 C6.28076162,183.170951 0.0570215618,174.414206 2,171 L122,111 L130.405738,112.30943 L133.077739,107.971063 L153.058657,111 L136.797339,101.46245 L153.058657,56 L184.404418,120.5 L188.137938,94.2869407 L204.185162,135.763447 L211.703342,151.787189 L242,171 C241.213226,186.653897 231.11434,196.942308 211.703342,201.865231 Z" id="Path" fill="#C1D84C"></path>
                <polygon id="Path-11" fill="#3E3E49" points="176 171 199.441829 0 209 0 185.558171 171"></polygon>
                <g id="Group-2" transform="translate(0.000000, 86.000000)" fill="#65C9D1">
                    <polygon id="Path-8" points="39.720974 40.5380311 55.3456272 25.2135669 57.9398305 62.9294869 60.9627863 71.2677804 52.9739941 67.8606381 52.9739941 48.7828424 39.720974 53.7280995"></polygon>
                    <path d="M33,17 L40.9275802,19.6311158 C43.3731576,24.3374254 44.9847832,27.1591449 45.762457,28.0962743 C46.9414939,29.517063 47.5295222,27.1262208 47.9398526,28.0962743 C48.756154,30.0260753 48.0303554,31.0143663 45.762457,31.0611473 L38.2342543,27.1475555 L33,17 Z" id="Path-9"></path>
                    <path d="M17.8227951,20.286926 L10.7953521,39.3965707 C7.86542311,44.3870872 5.93363909,47.3351215 5,48.2406737 C2.63284014,50.5366216 1.81562546,48.0855328 1.20822995,49.4989595 C0.241487251,51.7485975 1.5054106,52.8764513 5,52.8825211 L17.8227951,39.3965707 L25.4037184,30.1062236 L25.4037184,56.2814368 C25.0917259,58.2141763 26.4571531,61.686562 29.5,66.6985941 C32.5428469,71.7106262 38.4592391,80.2325376 47.2491767,92.2643281 L51.5462961,82.0219418 C48.9811916,84.1019114 47.0532453,83.4963002 45.762457,80.2051084 C44.4716687,76.9139165 43.6365747,70.4744561 43.257175,60.886727 L43.257175,48.0698092 L39.720974,27.3852848 L34.4867197,13.0156103 L17.8227951,20.286926 Z" id="Path-7"></path>
                    <path d="M29.5,20.2869407 C35.2989899,20.2869407 40,15.5859159 40,9.78692605 C40,3.98793617 35.2989899,0 29.5,0 C23.7010101,0 19,4.70101013 19,10.5 C19,16.2989899 23.7010101,20.2869407 29.5,20.2869407 Z" id="Oval"></path>
                </g>
                <polygon id="Path-12" fill="#FFFFFF" points="208.372179 0 203 44 248.231495 39.8931131 261 8.19575456"></polygon>
                <polygon id="Path-13" fill="#FFFFFF" transform="translate(292.444451, 16.284669) rotate(-1.000000) translate(-292.444451, -16.284669) " points="258 28.5693376 268.082487 4 326.888902 28.5693376"></polygon>
            </g>
            <g id="water-tile" transform="translate(120.000000, 426.000000) scale(-1, 1) translate(-120.000000, -426.000000) translate(0.000000, 346.000000)">
                <polyline id="Path" fill="#5CA8B0" points="0 60 120 120 240 60 240 100 120 160 0 100 0 60"></polyline>
                <polyline id="Path" fill="#65C9D1" points="240 60 120 120 0 60 120 0 240 60"></polyline>
                <path d="M130.107141,42.9918904 C138.381689,42.9918904 159,35.0892399 159,32.8403398 C159,30.5914397 153.912767,31.0356142 145.638218,31.0356142 C137.363669,31.0356142 118,38.7422285 118,40.9911286 C118,43.2400287 121.832592,42.9918904 130.107141,42.9918904 Z" id="Oval" fill="#8DD7DD"></path>
                <path d="M82.1071407,88.9918904 C90.3816894,88.9918904 111,81.0892399 111,78.8403398 C111,76.5914397 105.912767,77.0356142 97.6382179,77.0356142 C89.3636692,77.0356142 70,84.7422285 70,86.9911286 C70,89.2400287 73.8325919,88.9918904 82.1071407,88.9918904 Z" id="Oval" fill="#8DD7DD"></path>
                <path d="M64.1071407,54.9918904 C72.3816894,54.9918904 93,47.0892399 93,44.8403398 C93,42.5914397 87.9127666,43.0356142 79.6382179,43.0356142 C71.3636692,43.0356142 52,50.7422285 52,52.9911286 C52,55.2400287 55.8325919,54.9918904 64.1071407,54.9918904 Z" id="Oval" fill="#8DD7DD"></path>
                <path d="M160.107141,78.9918904 C168.381689,78.9918904 189,71.0892399 189,68.8403398 C189,66.5914397 183.912767,67.0356142 175.638218,67.0356142 C167.363669,67.0356142 148,74.7422285 148,76.9911286 C148,79.2400287 151.832592,78.9918904 160.107141,78.9918904 Z" id="Oval" fill="#8DD7DD"></path>
            </g>
            <g id="waterfall-tile" transform="translate(241.000000, 564.000000) scale(-1, 1) translate(-241.000000, -564.000000) translate(119.000000, 406.000000)">
                <polygon id="Path" fill="#5CA8B0" points="124 120 244 60 244 100 124 160 4 100 4 60"></polygon>
                <path d="M124,120 C124.333333,229.944651 124.333333,290.611318 124,302 C123.5,319.083023 102.256236,317.275071 94.3389211,311 C79.6483634,299.356621 90.2281934,291.41171 78,284.916977 C78,284.916977 73.775517,296.950634 58.837092,296.950634 C43.8986669,296.950634 34.0332179,281.620421 31.9746743,275.004389 C27.3241651,260.05794 14.7679531,289.95445 4.5,270.393137 C0.925504375,263.583422 1.25822712,257.733404 1,243 C0.333333333,204.962672 1,143.962672 3,60 L124,0 L244,60 L124,120 Z" id="Path" fill="#65C9D1"></path>
                <path d="M127.107141,42.9918904 C135.381689,42.9918904 156,35.0892399 156,32.8403398 C156,30.5914397 150.912767,31.0356142 142.638218,31.0356142 C134.363669,31.0356142 115,38.7422285 115,40.9911286 C115,43.2400287 118.832592,42.9918904 127.107141,42.9918904 Z" id="Oval" fill="#8DD7DD"></path>
                <path d="M79.1071407,88.9918904 C87.3816894,88.9918904 108,81.0892399 108,78.8403398 C108,76.5914397 102.912767,77.0356142 94.6382179,77.0356142 C86.3636692,77.0356142 67,84.7422285 67,86.9911286 C67,89.2400287 70.8325919,88.9918904 79.1071407,88.9918904 Z" id="Oval" fill="#8DD7DD"></path>
                <path d="M61.1071407,54.9918904 C69.3816894,54.9918904 90,47.0892399 90,44.8403398 C90,42.5914397 84.9127666,43.0356142 76.6382179,43.0356142 C68.3636692,43.0356142 49,50.7422285 49,52.9911286 C49,55.2400287 52.8325919,54.9918904 61.1071407,54.9918904 Z" id="Oval" fill="#8DD7DD"></path>
                <path d="M157.107141,78.9918904 C165.381689,78.9918904 186,71.0892399 186,68.8403398 C186,66.5914397 180.912767,67.0356142 172.638218,67.0356142 C164.363669,67.0356142 145,74.7422285 145,76.9911286 C145,79.2400287 148.832592,78.9918904 157.107141,78.9918904 Z" id="Oval" fill="#8DD7DD"></path>
            </g>
        </g>
    </g>
</svg>